<svg xmlns="http://www.w3.org/2000/svg" version="1.1" xmlns:xlink="http://www.w3.org/1999/xlink" xmlns:svgjs="http://svgjs.dev/svgjs" width="1440" height="560" preserveAspectRatio="none" viewBox="0 0 1440 560"><g mask="url(&quot;#SvgjsMask1006&quot;)" fill="none"><rect width="1440" height="560" x="0" y="0" fill="#0e2a47"></rect><path d="M0,484.589C117.157,495.567,231.672,572.517,342.47,532.893C458.862,491.268,549.613,386.709,595.09,271.768C639.679,159.073,599.153,36.199,586.688,-84.353C573.654,-210.414,614.878,-366.467,520.368,-450.901C423.928,-537.059,266.234,-447.758,141.54,-482.041C20.268,-515.383,-66.697,-672.279,-189.721,-646.131C-310.95,-620.364,-337.955,-456.831,-418.847,-362.933C-499.427,-269.397,-622.997,-211.899,-664.101,-95.483C-708.673,30.754,-723.907,184.807,-652.149,297.826C-581.057,409.795,-431.07,435.841,-303.565,472.356C-204.196,500.813,-102.913,474.946,0,484.589" fill="#0b2239"></path><path d="M1440 1124.687C1545.046 1123.126 1637.859 1061.683 1721.8809999999999 998.616 1801.291 939.011 1859.641 860.4739999999999 1907.7350000000001 773.608 1959.284 680.502 2018.4160000000002 584.129 2010.1109999999999 478.03 2001.6109999999999 369.442 1949.755 259.031 1862.366 194.01799999999997 1779.2649999999999 132.19400000000002 1663.568 164.745 1561.964 144.62900000000002 1472.068 126.83100000000002 1388.975 61.375 1299.837 82.64699999999999 1209.646 104.17000000000002 1155.974 191.50099999999998 1090.483 257.142 1019.7180000000001 328.06899999999996 913.412 383.08299999999997 900.906 482.49 888.398 581.907 985.396 657.475 1028.753 747.81 1071.057 835.951 1080.606 941.019 1152.684 1007.073 1230.555 1078.4360000000001 1334.387 1126.2559999999999 1440 1124.687" fill="#113255"></path></g><defs><mask id="SvgjsMask1006"><rect width="1440" height="560" fill="#ffffff"></rect></mask></defs></svg>